<mxfile host="app.diagrams.net" modified="2021-03-09T21:49:45.945Z" agent="5.0 (Windows NT 10.0; Win64; x64) AppleWebKit/537.36 (KHTML, like Gecko) Chrome/88.0.4324.190 Safari/537.36" etag="yksIxx3947_cwu0U1cwO" version="14.4.6" type="github">
  <diagram id="dT-BstXf9z1sqyS1aYiG" name="Page-1">
    <mxGraphModel dx="1117" dy="680" grid="1" gridSize="10" guides="1" tooltips="1" connect="1" arrows="1" fold="1" page="1" pageScale="1" pageWidth="1654" pageHeight="1169" math="0" shadow="0">
      <root>
        <mxCell id="0" />
        <mxCell id="1" parent="0" />
        <mxCell id="E0mVHZY5-Svg33htTyhM-1" value="Public Sealed Class ConversationExporterConfiguration.cs" style="swimlane;fontStyle=1;align=center;verticalAlign=top;childLayout=stackLayout;horizontal=1;startSize=26;horizontalStack=0;resizeParent=1;resizeParentMax=0;resizeLast=0;collapsible=1;marginBottom=0;" parent="1" vertex="1">
          <mxGeometry x="120" y="130" width="360" height="104" as="geometry" />
        </mxCell>
        <mxCell id="E0mVHZY5-Svg33htTyhM-2" value="+ InputFilePath : string&#xa;+ OutputFilePath : string" style="text;strokeColor=none;fillColor=none;align=left;verticalAlign=top;spacingLeft=4;spacingRight=4;overflow=hidden;rotatable=0;points=[[0,0.5],[1,0.5]];portConstraint=eastwest;" parent="E0mVHZY5-Svg33htTyhM-1" vertex="1">
          <mxGeometry y="26" width="360" height="44" as="geometry" />
        </mxCell>
        <mxCell id="E0mVHZY5-Svg33htTyhM-3" value="" style="line;strokeWidth=1;fillColor=none;align=left;verticalAlign=middle;spacingTop=-1;spacingLeft=3;spacingRight=3;rotatable=0;labelPosition=right;points=[];portConstraint=eastwest;" parent="E0mVHZY5-Svg33htTyhM-1" vertex="1">
          <mxGeometry y="70" width="360" height="8" as="geometry" />
        </mxCell>
        <mxCell id="E0mVHZY5-Svg33htTyhM-4" value="Get, Set" style="text;strokeColor=none;fillColor=none;align=left;verticalAlign=top;spacingLeft=4;spacingRight=4;overflow=hidden;rotatable=0;points=[[0,0.5],[1,0.5]];portConstraint=eastwest;" parent="E0mVHZY5-Svg33htTyhM-1" vertex="1">
          <mxGeometry y="78" width="360" height="26" as="geometry" />
        </mxCell>
        <mxCell id="0P48gXg5jcKvVJu8oGB--1" value="Public Sealed Class ConversationExporter.cs" style="swimlane;fontStyle=1;align=center;verticalAlign=top;childLayout=stackLayout;horizontal=1;startSize=26;horizontalStack=0;resizeParent=1;resizeParentMax=0;resizeLast=0;collapsible=1;marginBottom=0;" vertex="1" parent="1">
          <mxGeometry x="660" y="70" width="450" height="110" as="geometry" />
        </mxCell>
        <mxCell id="0P48gXg5jcKvVJu8oGB--5" value="Public Sealed Class Conversation" style="swimlane;fontStyle=1;align=center;verticalAlign=top;childLayout=stackLayout;horizontal=1;startSize=26;horizontalStack=0;resizeParent=1;resizeParentMax=0;resizeLast=0;collapsible=1;marginBottom=0;" vertex="1" parent="1">
          <mxGeometry x="690" y="300" width="370" height="104" as="geometry" />
        </mxCell>
        <mxCell id="0P48gXg5jcKvVJu8oGB--6" value="+ name : string&#xa;+ messages : IEnumerable&lt;Message&gt;" style="text;strokeColor=none;fillColor=none;align=left;verticalAlign=top;spacingLeft=4;spacingRight=4;overflow=hidden;rotatable=0;points=[[0,0.5],[1,0.5]];portConstraint=eastwest;" vertex="1" parent="0P48gXg5jcKvVJu8oGB--5">
          <mxGeometry y="26" width="370" height="44" as="geometry" />
        </mxCell>
        <mxCell id="0P48gXg5jcKvVJu8oGB--7" value="" style="line;strokeWidth=1;fillColor=none;align=left;verticalAlign=middle;spacingTop=-1;spacingLeft=3;spacingRight=3;rotatable=0;labelPosition=right;points=[];portConstraint=eastwest;" vertex="1" parent="0P48gXg5jcKvVJu8oGB--5">
          <mxGeometry y="70" width="370" height="8" as="geometry" />
        </mxCell>
        <mxCell id="0P48gXg5jcKvVJu8oGB--8" value="+ Conversation(name:string, messages:IEnumerable&lt;Message&gt;)" style="text;strokeColor=none;fillColor=none;align=left;verticalAlign=top;spacingLeft=4;spacingRight=4;overflow=hidden;rotatable=0;points=[[0,0.5],[1,0.5]];portConstraint=eastwest;" vertex="1" parent="0P48gXg5jcKvVJu8oGB--5">
          <mxGeometry y="78" width="370" height="26" as="geometry" />
        </mxCell>
        <mxCell id="0P48gXg5jcKvVJu8oGB--9" value="Public Sealed Class Message" style="swimlane;fontStyle=1;align=center;verticalAlign=top;childLayout=stackLayout;horizontal=1;startSize=26;horizontalStack=0;resizeParent=1;resizeParentMax=0;resizeLast=0;collapsible=1;marginBottom=0;" vertex="1" parent="1">
          <mxGeometry x="690" y="490" width="390" height="114" as="geometry" />
        </mxCell>
        <mxCell id="0P48gXg5jcKvVJu8oGB--10" value="+ content : string&#xa;+ timestamp : DateTimeOffset&#xa;+ senderId : string" style="text;strokeColor=none;fillColor=none;align=left;verticalAlign=top;spacingLeft=4;spacingRight=4;overflow=hidden;rotatable=0;points=[[0,0.5],[1,0.5]];portConstraint=eastwest;" vertex="1" parent="0P48gXg5jcKvVJu8oGB--9">
          <mxGeometry y="26" width="390" height="54" as="geometry" />
        </mxCell>
        <mxCell id="0P48gXg5jcKvVJu8oGB--11" value="" style="line;strokeWidth=1;fillColor=none;align=left;verticalAlign=middle;spacingTop=-1;spacingLeft=3;spacingRight=3;rotatable=0;labelPosition=right;points=[];portConstraint=eastwest;" vertex="1" parent="0P48gXg5jcKvVJu8oGB--9">
          <mxGeometry y="80" width="390" height="8" as="geometry" />
        </mxCell>
        <mxCell id="0P48gXg5jcKvVJu8oGB--12" value="+ Message(timestamp:DateTimeOffset, senderId:string, content:string)" style="text;strokeColor=none;fillColor=none;align=left;verticalAlign=top;spacingLeft=4;spacingRight=4;overflow=hidden;rotatable=0;points=[[0,0.5],[1,0.5]];portConstraint=eastwest;" vertex="1" parent="0P48gXg5jcKvVJu8oGB--9">
          <mxGeometry y="88" width="390" height="26" as="geometry" />
        </mxCell>
        <mxCell id="0P48gXg5jcKvVJu8oGB--14" style="edgeStyle=orthogonalEdgeStyle;rounded=0;orthogonalLoop=1;jettySize=auto;html=1;entryX=0.5;entryY=0;entryDx=0;entryDy=0;" edge="1" parent="1" source="0P48gXg5jcKvVJu8oGB--4" target="0P48gXg5jcKvVJu8oGB--5">
          <mxGeometry relative="1" as="geometry" />
        </mxCell>
        <mxCell id="0P48gXg5jcKvVJu8oGB--17" style="edgeStyle=orthogonalEdgeStyle;rounded=0;orthogonalLoop=1;jettySize=auto;html=1;entryX=1;entryY=0.5;entryDx=0;entryDy=0;" edge="1" parent="1" source="0P48gXg5jcKvVJu8oGB--4" target="E0mVHZY5-Svg33htTyhM-2">
          <mxGeometry relative="1" as="geometry" />
        </mxCell>
        <mxCell id="0P48gXg5jcKvVJu8oGB--4" value="+ Main(args : string[]) : void&#xa;+ ExportConversation(inputFilePath : string, outputFile : string) : void&#xa;+ ReadConversation (inputFilePath : string) : Conversation&#xa;+ WriteConversation (conversation : Conversation, outputFilePath : string) : void" style="text;strokeColor=none;fillColor=none;align=left;verticalAlign=top;spacingLeft=4;spacingRight=4;overflow=hidden;rotatable=0;points=[[0,0.5],[1,0.5]];portConstraint=eastwest;" vertex="1" parent="1">
          <mxGeometry x="660" y="96" width="450" height="84" as="geometry" />
        </mxCell>
        <mxCell id="0P48gXg5jcKvVJu8oGB--16" style="edgeStyle=orthogonalEdgeStyle;rounded=0;orthogonalLoop=1;jettySize=auto;html=1;entryX=0.5;entryY=0;entryDx=0;entryDy=0;" edge="1" parent="1" source="0P48gXg5jcKvVJu8oGB--6" target="0P48gXg5jcKvVJu8oGB--9">
          <mxGeometry relative="1" as="geometry" />
        </mxCell>
      </root>
    </mxGraphModel>
  </diagram>
</mxfile>
